PathFileType	4	(X/Y/Z)	C:/Users/opensim2020/Desktop/walking_exp_matlab/subject06_walking18_straight_04.trc	
DataRate	CameraRate	NumFrames	NumMarkers	Units	OrigDataRate	OrigDataStartFrame	OrigNumFrames	
100.00	100.00	5	47	mm	100.00	4623	409	
Frame#	Time	LFHD			RFHD			LBHD			RBHD			C7			T10			CLAV			STRN			RBAK			LSHO			LUPA			LELB			LFRM			LWRA			LWRB			LFIN			RSHO			RUPA			RELB			RFRM			RWRA			RWRB			RFIN			LASI			RASI			LPSI			RPSI			LTHI			LKNE			LTIB			LANK			LHEE			LTOE			RTHI			RKNE			RTIB			RANK			RHEE			RTOE			*39			*40			*41			*42			*43			*44			*45			*46			
		X1	Y1	Z1	X2	Y2	Z2	X3	Y3	Z3	X4	Y4	Z4	X5	Y5	Z5	X6	Y6	Z6	X7	Y7	Z7	X8	Y8	Z8	X9	Y9	Z9	X10	Y10	Z10	X11	Y11	Z11	X12	Y12	Z12	X13	Y13	Z13	X14	Y14	Z14	X15	Y15	Z15	X16	Y16	Z16	X17	Y17	Z17	X18	Y18	Z18	X19	Y19	Z19	X20	Y20	Z20	X21	Y21	Z21	X22	Y22	Z22	X23	Y23	Z23	X24	Y24	Z24	X25	Y25	Z25	X26	Y26	Z26	X27	Y27	Z27	X28	Y28	Z28	X29	Y29	Z29	X30	Y30	Z30	X31	Y31	Z31	X32	Y32	Z32	X33	Y33	Z33	X34	Y34	Z34	X35	Y35	Z35	X36	Y36	Z36	X37	Y37	Z37	X38	Y38	Z38	X39	Y39	Z39	X40	Y40	Z40	X41	Y41	Z41	X42	Y42	Z42	X43	Y43	Z43	X44	Y44	Z44	X45	Y45	Z45	X46	Y46	Z46	X47	Y47	Z47	

103	1.020	-870.84485	545.76489	1660.05493	-1003.25720	549.28070	1655.56213	-870.05377	677.61676	1601.80322	-999.45233	679.05145	1602.44653	-928.76776	676.78265	1450.52673	-947.45148	714.49872	1122.19702	-940.11456	567.94055	1373.33264	-941.57806	530.75629	1196.71301	-1009.61157	756.04590	1283.12500	-774.04309	606.37762	1400.02783	-701.90186	584.83447	1198.04724	-687.58527	568.93353	1086.39331	-670.00787	504.54059	949.81183	-718.02014	417.99109	857.71179	-676.91528	471.74017	835.39343	-682.88782	409.81696	768.51569	-1097.04773	623.74030	1409.70593	-1186.26123	670.83057	1214.24243	-1201.12317	664.88684	1092.82751	-1220.77271	641.03406	975.68842	-1193.73193	564.25305	844.22919	-1231.39197	621.10986	840.15918	-1235.71594	576.63831	768.13977	-851.70215	532.63055	956.91693	-1073.06702	541.34534	973.72827	-874.88672	691.72266	987.64270	-1043.30078	692.61365	993.90979	-806.07751	625.37531	645.29919	-827.50378	648.31519	482.07104	-838.53595	726.34363	235.57072	-888.36639	760.05969	67.68892	-933.42828	800.80054	56.37693	-888.28552	617.24756	34.10894	-1144.53699	537.94983	646.24475	-1116.36877	497.57867	528.78802	-1130.62854	478.62115	266.53918	-1097.01501	442.65784	81.44155	-1051.87061	473.50201	47.76699	-1094.93018	285.46295	72.26427	-925.51880	648.62744	1698.19299																					 
104	1.030	-872.11542	540.59808	1659.41077	-1004.59363	544.19843	1654.78918	-871.34729	672.31537	1600.98999	-1000.65436	673.86316	1601.50171	-929.81042	671.44324	1449.81982	-948.27234	709.25592	1121.50378	-941.01874	562.61267	1372.51184	-942.29071	525.59320	1195.89221	-1010.59198	750.61926	1282.41064	-775.08264	601.09485	1399.40369	-702.88074	579.54236	1197.49023	-688.67017	563.61853	1085.78259	-671.21722	498.80994	949.52319	-719.71204	411.59354	857.99310	-678.97479	465.49847	835.21344	-685.17761	403.25882	768.44543	-1098.03430	618.14856	1408.78687	-1186.95007	665.82446	1213.35583	-1201.83997	660.30121	1091.97473	-1221.45679	637.03662	974.69922	-1194.53149	560.84344	842.76996	-1231.97974	617.74664	838.95764	-1236.46167	573.92987	766.77081	-852.07269	527.56573	956.33057	-1073.56116	535.63586	973.23584	-875.58612	686.62354	986.76520	-1043.97839	687.15857	993.10742	-806.79553	620.36755	644.53802	-828.30151	643.48999	481.33252	-839.08173	723.82281	235.55756	-888.61127	759.50208	68.04674	-933.96118	800.78363	57.13694	-888.41174	617.05713	34.15473	-1144.69775	531.07349	646.30396	-1116.29016	492.56741	528.03839	-1130.75574	470.74103	266.12881	-1097.07275	431.51108	81.50292	-1052.00562	461.92856	47.52900	-1095.19421	274.08459	74.29651	-926.81427	643.54797	1697.39026																					 
105	1.040	-873.56335	535.42389	1658.76221	-1005.97278	539.04022	1653.96826	-872.53235	667.11371	1600.18372	-1001.93372	668.64209	1600.51526	-931.01880	666.08453	1449.04053	-949.02460	703.62701	1120.62134	-941.98438	557.16589	1371.68250	-943.06830	520.41736	1195.00378	-1011.69281	745.26544	1281.62646	-776.21405	595.87415	1398.76538	-703.91614	574.23987	1196.88770	-689.80347	558.41437	1085.06348	-672.73230	492.96896	949.11346	-721.43292	404.96704	858.35510	-680.99896	458.91486	835.07507	-687.66138	396.52951	768.45978	-1099.15613	612.58655	1407.85583	-1187.97717	660.70905	1212.52368	-1202.66077	655.60229	1091.02429	-1222.25208	632.93030	973.60760	-1195.38000	557.38605	841.21796	-1232.63928	614.56195	837.71063	-1237.17786	571.04285	765.26538	-852.48694	522.42139	955.65845	-1074.11621	530.07220	972.55530	-876.31714	681.43195	985.88165	-1044.75781	681.71460	992.27838	-807.53705	615.41949	643.77722	-829.09460	638.90082	480.62598	-839.62445	721.32959	235.53708	-888.89813	759.01202	68.37823	-934.06940	800.17572	57.40162	-888.55707	616.85571	34.13457	-1144.69092	525.30573	645.59656	-1116.26697	487.49374	527.34094	-1131.04431	462.89435	265.58206	-1097.33398	421.00970	81.50500	-1052.08899	450.98642	47.28949	-1095.61621	263.55484	76.26302	-928.25000	638.44470	1696.54236																					 
106	1.050	-875.07147	530.18469	1658.06934	-1007.41241	533.77191	1653.08435	-873.95093	661.84619	1599.32385	-1003.33575	663.32062	1599.51831	-932.25378	660.61469	1448.21155	-949.90228	698.32257	1119.80383	-943.07886	551.85852	1370.73499	-943.90570	515.13312	1194.10132	-1012.86456	739.81012	1280.80554	-777.36896	590.58563	1398.08423	-704.97638	568.95599	1196.29041	-690.95319	553.17712	1084.34937	-674.62268	486.89105	948.63812	-723.26178	398.28418	858.82452	-683.17511	452.18796	834.94104	-690.31311	389.57489	768.60333	-1100.31958	606.95520	1406.81226	-1188.99365	655.51447	1211.51965	-1203.56177	650.81024	1090.00867	-1223.07117	628.73639	972.42224	-1196.28650	553.84644	839.54181	-1233.35876	611.06116	836.32007	-1237.96228	568.01740	763.70172	-852.98926	517.24921	954.89117	-1074.69299	524.47559	971.81049	-877.11334	676.13428	984.91736	-1045.57764	676.20642	991.40863	-808.31995	610.44104	642.88116	-829.83472	634.42676	479.87863	-840.23779	719.11066	235.44559	-889.07257	758.56085	68.64806	-934.25079	799.90112	57.84446	-888.64923	616.67529	34.14409	-1144.84338	519.57629	644.85394	-1116.22717	482.23096	526.48151	-1131.20630	455.36026	265.02960	-1097.22510	411.41455	81.50743	-1051.99683	440.74075	46.98243	-1096.17468	253.83772	77.74233	-929.75000	633.27142	1695.65796																					 
107	1.060	-876.50378	524.94720	1657.28088	-1008.91559	528.52997	1652.20667	-875.50519	656.48523	1598.41113	-1004.80408	657.97968	1598.47473	-933.61334	655.20313	1447.37195	-950.84619	692.93561	1118.91833	-944.23181	546.41895	1369.81470	-944.74658	509.71796	1193.15857	-1014.03998	734.26935	1279.86597	-778.63379	585.22339	1397.32153	-706.06012	563.63788	1195.59045	-692.06757	547.98303	1083.55566	-675.93512	480.97141	948.31635	-725.18018	391.43124	859.42212	-685.48444	445.27689	834.95062	-693.07715	382.36411	768.78064	-1101.57947	601.27130	1405.69897	-1190.12207	650.21191	1210.44275	-1204.50061	645.87579	1088.89966	-1224.01733	624.47662	971.18994	-1197.24255	550.23590	837.81708	-1234.28015	607.59595	834.97675	-1238.84778	564.98358	762.04370	-853.54803	511.91986	954.01685	-1075.39709	518.91400	970.91675	-877.92651	670.78943	983.91608	-1046.40320	670.60260	990.48608	-809.14130	605.63165	642.00989	-830.56152	630.21967	479.11627	-840.91559	716.92072	235.36597	-889.16986	758.15161	68.88467	-934.35834	799.70776	58.25148	-888.74023	616.61743	34.15709	-1145.33716	513.58875	644.23438	-1116.50781	476.76755	525.67133	-1131.39343	448.24200	264.40860	-1097.35461	402.48114	81.36023	-1051.74756	431.30463	46.53143	-1096.70337	244.86072	78.70195	-931.31958	628.02576	1694.72595																					 
